<?xml version="1.0" encoding="utf-8"?>
<!-- Generator: Adobe Illustrator 24.0.0, SVG Export Plug-In . SVG Version: 6.00 Build 0)  -->
<svg version="1.1" id="Layer_1" xmlns="http://www.w3.org/2000/svg" xmlns:xlink="http://www.w3.org/1999/xlink" x="0px" y="0px"
	 viewBox="0 0 1080 1920" style="enable-background:new 0 0 1080 1920;" xml:space="preserve">
<style type="text/css">
	.st0{fill:#ED1C2B;}
	.st1{fill:#ED202A;}
	.st2{font-family:'LeelawadeeUI-Bold';}
	.st3{font-size:216.6776px;}
	.st4{fill:#67BC45;}
	.st5{fill:#F26728;}
</style>
<text transform="matrix(1 0 0 1 129.5594 563.4352)" class="st1 st2 st3">CHÂU Á</text>
<g>
	<g>
		<path class="st1" d="M1006.7,1015.06c-0.28-1.2-1.24-2.16-2.2-3.01c-6.48-5.95-13.7-11.08-21.46-15.19
			c4.89-0.42,9.95-0.89,14.31-3.22c4.36-2.3,7.86-6.98,7.22-11.86c-1.1-8.36-12.93-13.21-11.72-21.53
			c0.57-3.75,3.82-7.54,2.05-10.91c-1.24-2.3-4.21-2.9-6.83-3.26c-13.67-1.84-27.34-3.68-41.04-5.49c0.6,5.21-0.85,11.01-5.06,14.17
			c-4.25,3.12-11.4,2.09-13.42-2.76c-0.67-1.7-0.74-3.68-1.91-5.14c-2.44-3.12-7.37-1.31-11.12,0.14
			c-8.04,3.12-17.25,3.12-25.29-0.04c-1.56-0.64-3.26-1.49-3.9-3.05c-0.96-2.3,0.64-4.82,0.78-7.29c0.21-4.25-4.18-7.54-8.43-7.93
			c-4.21-0.35-8.32,1.35-12.39,2.66c-11.79,3.82-25.78,4.32-35.48-3.4c-2.87-2.27-5.24-5.17-8.32-7.12
			c-4.36-2.76-9.7-3.33-14.84-3.86c-13.21-1.35-26.38-2.69-39.59-4.04c-1.27-0.14-2.73-0.21-3.79,0.53
			c-1.7,1.24-1.42,3.82-1.98,5.84c-1.06,3.93-5.52,5.98-9.56,6.27c-4.07,0.28-8.18-0.67-12.22-0.21c-3.01,0.32-5.95,1.45-8.96,1.28
			c-3.05-0.18-6.34-2.3-6.27-5.31c-3.79,2.37-6.3,6.69-6.45,11.19c-7.68,0.85-17.35-4.64-15.69-12.22c0.46-1.95,1.59-3.68,1.77-5.67
			c1.03-12.32-29.43-15.05-36.3-9.74c-1.88,1.45-3.33,3.4-5.1,4.96c-7.47,6.52-20.86,3.93-25.39-4.92
			c-10.77-1.35-21.71-1.28-32.51,0.14c-4.39-7.44-15.79-3.93-23.09,0.71c-7.3,4.64-17.92,9.21-23.48,2.59
			c18.41-4.18,35.87-12.54,50.71-24.22c1.49-1.17,3.12-2.76,2.76-4.67c-0.21-1.31-1.35-2.23-2.44-3.01
			c-6.83-4.74-15.23-7.26-23.55-7.05c-6.09,0.14-13.32,1.24-17.18-3.44c-2.41-2.87-2.66-7.29-5.6-9.67
			c-2.8-2.27-6.8-1.74-10.34-1.13c-7.83,1.42-15.69,2.83-23.51,4.25c-1.2,0.21-2.55,0.5-3.4,1.38c-1.1,1.2-1.03,3.05-1.13,4.71
			c-0.67,10.34-13.67,17.64-22.88,12.82c-2.87-1.52-5.31-3.93-8.43-4.89c-3.93-1.17-8.15,0.18-12,1.52
			c-16.26,5.63-32.47,11.26-48.69,16.89c4.36,2.97,10.06,3.93,15.16,2.59c1.52,2.73-2.44,5.13-5.49,5.77
			c-12.39,2.59-24.75,5.17-37.15,7.72c7.08,5.38,13.95,11.08,20.54,17.07c3.19-2.23,6.2,3.58,4.99,7.29
			c-1.17,3.72-3.4,8.32-0.57,10.98c-3.79-1.27-7.05-4.07-8.89-7.68c1.98-1.45,3.9-2.94,5.88-4.43c-4.32,0.89-9.07-1.95-10.38-6.16
			c-7.9-1.52-15.44-4.92-21.78-9.88c-1.27,2.97,0.46,6.87,3.54,7.97c-2.9,0.39-5.84,0.74-8.75,1.1c0.96,4.53,5.03,8.22,9.63,8.75
			c-5.81,1.49-12.29,0.11-17.03-3.58c4.32-6.52-2.02-16.86-9.81-15.94c4.46,0.6,5.21,7.01,3.26,11.05
			c-1.98,4.07-5.45,7.72-5.38,12.22c0.07,5.52,5.21,12.15,0.92,15.65c5.21,4.36,14.91-3.58,19.26,1.59
			c1.35,1.63,1.49,3.86,2.05,5.88c1.7,6.06,8.36,10.27,14.55,9.21c-3.58,5.67-12.08,0.07-15.97-5.38
			c-3.86-5.45-12.57-10.87-15.94-5.1c-1.1,1.91-0.89,4.21-0.89,6.37c-0.21,15.76-18.7,28.26-33.39,22.56
			c5.6-6.91,18.73-4.18,23.02-11.93c1.74-3.19,1.27-7.08,0.74-10.66c-1.73-11.69-3.43-23.37-5.17-35.06
			c1.03-5.38,1.42-10.91,1.17-16.36c-6.16,2.16-16.08,1.88-15.87-4.64c-5.24,8.68-10.48,17.32-15.72,25.99
			c-3.19,5.21-5.6,13.42-0.14,16.15c3.65-1.49,7.9,1.59,8.92,5.42c1.06,3.79-0.28,7.83-2.02,11.37
			c-7.86-21.74-47.63-11.72-57.97-32.4c-4.75,1.84-0.43,9.14,4.36,10.87c4.82,1.73,11.4,4.82,9.63,9.6
			c-1.35,3.75-6.52,3.75-10.48,3.47c-11.47-0.81-23.2,1.84-33.25,7.51c-0.89-4.04-1.81-8.04-2.69-12.04
			c-8.36,5.91-16.75,11.83-25.11,17.78c-4.07,2.87-8.39,5.84-13.35,6.37c-4.96,0.5-10.66-2.48-11.3-7.4
			c-0.64-4.96,6.55-9.28,9.74-5.45c1.38-9.07-11.01-16.64-18.45-11.26c4.92,8.36,5.06,19.34,0.28,27.8
			c-1.77,3.15-4.5,6.13-8.04,6.69c-3.58,0.53-7.68-2.55-6.94-6.09c-4.53,4-7.08,10.13-6.76,16.15c-7.37,2.41-16.15-0.46-20.72-6.76
			c0.57,3.51,1.13,6.98,1.7,10.48c-5.31,5.7-16.93,1.59-17.46-6.2c-0.14-2.3,0.46-4.57,0.46-6.87c0-7.86-6.94-13.71-13.24-18.42
			c9.42,3.58,18.91,7.15,28.33,10.73c5.31,2.02,10.98,4.07,16.54,3.01c8.15-1.56,13.39-12.5,6.16-18.17
			c-13-10.16-27.98-17.81-43.84-22.38c-4.57-1.31-9.46-2.37-13.95-0.92c-3.68,1.17-8.61,3.51-10.59,0.21
			c3.68,0.53,7.65-0.89,10.16-3.68c-7.68-1.7-15.48-2.8-23.34-3.19c-9.07,8.04-15.23,19.44-12.61,30.92
			c4.04,17.67,26.99,32.47,18.59,48.52c7.9-1.77,16.15-3.51,23.97-1.52c4.21,1.03,8.29,3.51,11.05,6.83c-0.04-0.18,0-0.35,0.04-0.53
			c2.34-0.78,4.85-1.59,7.26-0.92c2.37,0.64,4.32,3.44,3.12,5.63c-0.81,1.52-2.94,2.8-2.2,4.36c0.5,0.99,1.81,1.13,2.83,1.45
			c2.9,0.89,4.53,4.64,3.19,7.37c-4.18-0.25-8.36-0.46-12.54-0.64c-1.42,3.05-3.33,5.95-4.67,9c-5.63,12.71-1.52,27.3-1.06,41.19
			c0.21,7.12-1.42,15.05-4.96,21.21c0.85-0.18,1.7-0.35,2.55-0.5c15.76-2.69,33.75,1.31,43.42,14.06
			c9.63,12.75,6.41,34.67-8.39,40.65c-5.63,2.27-12.18,2.2-17.32,5.42c-2.09,1.28-3.65,3.54-4.36,5.91
			c9.56-5.42,19.41-10.62,30.21-12.64c-2.37,5.1-7.08,8.99-12.5,10.34c1.81,1.17,1.2,4.21-0.6,5.38c-1.81,1.17-4.18,0.96-6.27,0.53
			c-2.12-0.42-4.32-0.99-6.41-0.46c-1.84,0.46-3.29,1.88-4,3.61c-0.35,0.78-0.53,1.63-0.53,2.48c0,0.6,0.11,1.13,0.28,1.7
			c5.49-4.6,14.27-4.75,19.87-0.25c2.16,1.74,3.86,4,6.16,5.56c2.55,1.7,5.88,2.48,7.83,4.89c1.91,2.44,0.57,7.33-2.44,6.69
			c-0.11,1.52,1.49,2.62,2.97,2.9c1.49,0.28,3.12,0.18,4.46,0.85c3.12,1.63,2.55,6.66-0.18,8.85c-2.73,2.2-6.52,2.37-10.02,2.41
			c-9.21,0.14-18.73,0.21-27.16-3.54c-3.97-1.74-7.54-4.32-11.65-5.77c-4.07-1.45-9.03-1.59-12.36,1.2
			c-1.56,1.31-2.58,3.15-4.07,4.57c-3.58,3.43-9.63,3.9-13.67,1.03c-3.33-2.41-4.96-6.87-4.18-10.91
			c-3.82,3.86-7.08,8.32-9.42,13.17c2.02,5.74,4.04,11.54,6.06,17.28c0.67,1.88,1.31,3.72,1.98,5.56
			c1.95,5.63,5.13,12.22,11.05,12.61c7.51,0.5,15.02-9.7,20.96-0.5c1.13,1.77,1.49,3.9,1.49,6.02c-0.04,4.18,5.7,9.42,8.78,6.16
			c-0.35-3.01-0.67-6.23,0.71-8.96c1.38-2.69,5.17-4.36,7.58-2.48c1.63,1.28,1.95,3.58,2.05,5.6c0.14,3.01,0,6.06-0.39,9.03
			c-0.92,7.12-3.75,14.52-9.77,18.34c-4.71,2.97-11.44,5.1-7.61,11.4c0.89,1.38,4.46-0.21,5.45,1.13c2.23,3.12,0.67,6.41,0.99,10.09
			c0.6,7.83,9.49,11.76,14.34,17.92c6.73,8.5,5.31,20.68,8.64,31.02c6.76,21.14,33.39,34.71,31.91,56.84
			c-0.6,8.61-4.82,19.41,2.27,24.36c4.74,3.29,11.23,0.96,16.47-1.49c9.81-4.53,19.65-9.1,29.5-13.67c4-1.84,8.25-3.93,10.31-7.86
			c1.06-2.05,1.42-4.46,2.9-6.23c2.2-2.59,5.98-2.94,9.21-4c7.26-2.44,12.11-9.28,15.76-16.04c3.93-7.33,7.01-15.12,9.21-23.16
			c0.57-2.12,1.1-4.36,0.57-6.52c-1.91-7.83-15.62-8.57-16.33-16.61c-0.28-3.36,2.05-6.34,3.15-9.53c1.1-3.19-0.11-7.9-3.47-7.86
			c-2.02,5.95-4.21,12.15-8.71,16.5c-4.53,4.39-12.18,6.23-17.14,2.37c-3.68-2.83-4.89-7.76-7.4-11.65
			c-3.82-6.02-10.77-9.67-14.09-15.97c-3.33-6.3,1.56-16.93,8.15-14.2c3.22,11.93,11.4,22.42,22.24,28.44
			c6.69-2.27,13.14-5.31,19.16-9.07c3.01-2.41,6.98,2.09,7.3,5.91c0.32,3.86-0.28,8.53,2.83,10.77c1.59,1.17,3.72,1.24,5.7,1.24
			c16.22,0,32.4-1.88,48.16-5.6c-3.22,9.42,5.45,20.75,15.4,20.04c-1.2,3.86-5.06,6.73-9.1,6.76c1.95,3.79,4,7.76,7.47,10.31
			c3.47,2.51,8.75,3.08,11.79,0.07c2.87-2.8,3.26-8,6.98-9.56c4.32-1.81,8.61,3.61,8.25,8.29c-0.35,4.67-3.29,8.68-4.85,13.1
			c-3.15,9.03-0.21,18.95,2.69,28.05c5.63,17.57,11.47,35.59,22.98,50.04c4.14-3.9,8.29-7.76,12.43-11.65
			c5.6,0.96,5.77,8.99,4,14.34c-1.81,5.42-3.47,12.68,1.38,15.62c4.36,2.62,10.2-1.59,11.16-6.55c0.96-4.99-1.31-9.92-3.51-14.48
			c-2.87-5.84-5.7-11.72-8.53-17.6c-0.99-2.02-2.02-4.18-1.84-6.45c0.14-1.95,1.1-3.68,1.91-5.45c2.55-5.7,3.36-12.22,2.23-18.38
			c15.19-7.72,27.91-20.26,35.73-35.41c1.2-2.27,2.34-4.67,4.43-6.2c6.23-4.53,16.72,1.84,22.24-3.58
			c7.69,2.87,14.17,8.75,17.81,16.11c2.66,5.38,5.14,12.54,11.12,13c-9.17,3.75-15.4,13.74-14.7,23.62
			c9.24,2.34,19.44-6.41,18.52-15.87c3.61-2.05,8.39,0.46,10.31,4.14c1.91,3.68,1.7,8.07,1.45,12.18
			c-0.71,12.5-1.45,24.97-2.16,37.43c-0.21,3.72-0.35,7.72,1.7,10.8c1.95,2.9,5.63,4.53,6.98,7.79c2.02,4.78-2.02,10.8,0.6,15.3
			c1.42,2.37,4.21,3.44,6.37,5.1c4.6,3.54,6.16,9.74,9.49,14.52c3.33,4.78,11.01,7.9,14.63,3.33c-7.68-6.02-12.61-15.44-13.1-25.21
			c-0.11-2.23-0.04-4.57-0.96-6.59c-1.13-2.55-3.58-4.21-5.63-6.09c-12.04-11.01-10.55-30.03-8.11-46.18
			c5.6,8.18,14.55,13.95,24.33,15.65c-3.15,6.48-0.43,15.16,5.84,18.7c0.43-6.34,5.17-12.15,11.3-13.81c2.66-0.74,5.49-0.78,8-1.88
			c7.54-3.26,8.36-13.46,7.97-21.64c-0.14-3.22-0.32-6.59-2.05-9.28c-2.9-4.43-8.78-5.45-13.39-8.07
			c-8.25-4.67-12.29-15.69-8.96-24.61c3.29-8.89,13.53-14.63,22.84-12.75c3.08,1.35,1.7,6.23-0.99,8.25
			c-2.69,2.02-6.37,3.22-7.61,6.37c-1.77,4.32,3.47,9.14,8.04,8.15c4.57-0.96,7.51-5.81,7.83-10.48c0.28-4.67-1.42-9.21-3.12-13.6
			c9.84,2.16,20.68-1.31,27.45-8.75c1.91-2.09,3.61-4.53,6.06-5.95c4.78-2.8,11.62-1.28,15.55-5.21c3.01-3.01,2.8-7.83,3.72-11.97
			c1.74-7.72,7.68-13.63,11.23-20.68c3.47-7.05,6.94-17.88,5.06-25.67c-1.35-5.67-4.28-10.8-6.3-16.25
			c-1.45-3.86-2.44-7.86-2.97-11.97c-0.21-1.66-0.35-3.51,0.42-4.99c1.38-2.66,4.78-3.29,7.33-4.85c3.79-2.34,5.77-7.26,4.64-11.54
			c-10.52,3.51-22.84,0.85-30.95-6.73c2.34-4.53,7.54-6.66,12.04-9.07c4.53-2.37,9.24-6.27,9.03-11.4c2.87,0,5.7,0,8.53-0.04
			c0.21,4.67-1.98,9.38-5.67,12.25c3.9,3.36,9.74,0.18,14.34-2.23c4.57-2.41,12.22-2.41,12.78,2.73c0.53,4.92-6.94,8.25-5.91,13.1
			c5.24-1.77,10.84,5.21,8,9.95c-0.78,1.28-2.02,2.51-1.81,4c0.25,1.81,2.37,2.51,3.97,3.4c4.43,2.34,6.34,8.43,4.07,12.89
			c3.08-2.41,6.16-4.78,9.24-7.19c0.71,2.83,3.9,4.75,6.76,4.11c2.83-0.67,4.82-3.86,4.18-6.69c-0.6-2.8-3.19-4.75-4.04-7.44
			c-1.27-4.07,1.63-8.61,0.21-12.64c-1.1-3.15-4.46-4.82-7.19-6.8s-5.17-5.56-3.54-8.5c0.99-1.81,3.12-2.55,4.85-3.61
			c8.68-5.38,10.52-20.72,20.72-21.07c2.05-0.07,4.07,0.57,6.09,0.28c5.81-0.81,7.83-7.86,10.55-13.07
			c6.02-11.58,20.04-17.21,26.38-28.65c4.85-8.78,4.28-19.51,7.15-29.18c2.09-7.01,6.06-14.31,3.61-21.21
			c-3.05-8.61-16.96-10.31-21.99-2.66c0.81-4.32,1.63-8.64,2.48-13c-3.05,9.81-23.27,0.96-5.67-8.64
			c11.76-6.37,22.28-15.12,30.74-25.46c2.87-3.51,5.6-7.3,9.35-9.84c13.85-9.35,32.9,2.23,49.12-1.84c0.57,1.59,1.1,3.19,1.66,4.78
			c-4.36,1.81-8.68,3.65-13,5.45c9.14,4.28,18.98-5.88,29.07-5.45c2.94,0.11,7.19,0.14,7.37-2.76c-2.73-0.43-6.23-1.91-5.74-4.6
			c0.18-0.99,0.89-1.77,1.59-2.48c2.62-2.8,5.28-5.56,7.93-8.36c4.43-4.67,11.58-9.63,16.64-5.6c3.82,3.08,2.05,10.48-2.76,11.51
			c3.15,3.15,8.5,0.28,11.65-2.9c3.15-3.15,7.22-6.98,11.4-5.35c1.17-2.34,1.17-5.21,0.07-7.54c3.36-1.88,7.51-2.3,11.16-1.17
			c-2.23,1.88-3.75,4.6-4.21,7.51c-0.32,1.88-0.18,3.79-0.74,5.6c-2.02,6.73-11.01,7.51-17.35,10.59
			c-11.19,5.42-15.09,19.76-25.14,27.02c-2.48,1.81-5.28,3.15-7.33,5.42c-4.43,4.89-3.86,12.5-1.81,18.77
			c2.12,6.27,5.49,12.29,5.88,18.88c0.07,1.24,0.04,2.48-0.07,3.68c-0.46,4.39,4.92,6.83,8,3.72c0.74-0.78,1.49-1.52,2.23-2.27
			c3.58-3.68,7.29-7.47,9.1-12.29c1.24-3.4,1.81-7.54,4.96-9.31c2.3-1.31,5.17-0.74,7.79-1.2c2.62-0.43,5.42-3.08,4.11-5.42
			c-4.28-3.05-3.54-10.73,1.2-12.96c1.98,0.92,3.97,1.88,5.95,2.83c4.71-2.16-2.41-9.88,0.18-14.38c0.99-1.74,3.36-2.8,3.29-4.78
			c-0.07-2.48-3.58-2.9-6.02-2.51c-1.63-8.04,3.93-16.86,11.86-18.84c-0.14,1.66-0.28,3.36-0.42,5.03
			c3.93-2.48,7.86-4.96,11.79-7.47c0.71,1.91,1.38,3.82,2.05,5.77c4.71,2.44,8.39-8.29,13.28-6.3c1.06,0.46,1.77,1.42,2.66,2.12
			c3.51,2.87,9.81,0.67,10.77-3.75c3.65-16.79,24.05-17.56,41.15-18.98C1002.13,1020.69,1007.62,1018.96,1006.7,1015.06z
			 M251.54,1220c-2.87,2.59-7.01,3.29-10.84,2.69c-0.92,0.78-0.25,2.37,0.78,3.01c1.03,0.64,2.3,0.81,3.19,1.66
			c1.59,1.52,0.96,4.14,1.2,6.3c0.46,3.54,3.47,6.23,4.29,9.67c1.45,6.2-5.24,11.9-11.62,11.93c-13.32,0.11-22.66-10.69-26.1-22.31
			c-1.98-6.62-5.77-24.65,4.43-25.67c-3.08-4.04,0.14-8.5-1.77-12.82c-1.06-2.34-3.68-3.47-5.45-5.35c-3.54-3.75-3.01-10.09,0-14.31
			c3.01-4.21,7.83-6.69,12.64-8.57c4.71-1.84,10.02-3.26,14.66-1.35c4.67,1.91,7.47,8.53,4,12.18c-3.75,3.93-11.44,1.66-14.87,5.91
			c-2.16,2.62-1.42,6.76,0.74,9.38c2.2,2.62,5.45,4.07,8.61,5.31c1.77,0.71,3.68,1.52,4.39,3.26c1.1,2.58-1.13,5.21-2.55,7.61
			c-1.38,2.44-1.1,6.69,1.7,6.69c2.73-0.04,3.15-3.9,4.67-6.16c2.12-3.19,7.61-2.69,9.74,0.53
			C255.47,1212.81,254.37,1217.45,251.54,1220z M131.14,1030.79c0.04,0.39,0.04,0.78,0,1.2c-0.11,1.45-0.43,2.83-0.89,4.18
			c0.57,0.04,1.1,0.04,1.52,0C132.62,1034.36,132.09,1032.59,131.14,1030.79z M103.48,1120.63c6.73-0.5,11.76-4.75,15.09-10.59
			C112.19,1111.57,105.92,1114.68,103.48,1120.63z"/>
		<path class="st1" d="M716.35,1286.2c0.36-3.5,0.73-7.57,3.68-9.47c0.95,2.42,2.72,4.51,4.95,5.84c2.02-1.16,3.11-3.39,4.29-5.4
			c1.17-2.01,2.78-4.07,5.07-4.45s4.88,2.19,3.67,4.17c6,2.37,9.98-6.37,15.54-9.63c2.93-1.72,6.5-1.85,9.79-2.69
			c3.3-0.84,6.77-2.94,7.24-6.31c0.27-1.97-0.56-3.92-0.63-5.91c-0.14-4.24,3.11-7.71,5.2-11.4c3.65-6.44,3.82-14.73,0.43-21.31
			c-1.83-3.57-4.65-6.72-5.56-10.63c-0.91-3.91,1.36-9.01,5.37-8.95c1.11,3.41,2.6,7.24,5.95,8.51c3.35,1.28,7.85-2.99,5.42-5.63
			c3.77-1.04,7.73-1.38,11.62-1.01c1.64-2.42,1.25-6.01-0.88-8.02c12.3-4.29,22.89-12.76,31.01-22.95
			c-11.21,6.97-22.43,13.93-33.64,20.9c-1.33,0.82-2.91,1.68-4.37,1.12c-1.33-0.51-1.97-1.97-2.64-3.22
			c-3.02-5.67-9.37-9.39-15.79-9.27c0.52,5.36,1.04,10.72,1.56,16.08c-3.82-0.7-7.28,2.89-8.17,6.68c-0.88,3.78,0,7.72,0.32,11.59
			c1.13,13.6-5.31,27.58-16.37,35.57c-0.04-2.2-0.09-4.39-0.13-6.59c-5.85,0.85-3.17,11.76-8.43,14.44
			c-1.48,0.76-3.23,0.61-4.89,0.79c-8.24,0.87-8.11,9.34-17.02,5.96c-0.88,10.82-14.63,8.91-13.64,19.8
			C706.16,1294.02,714.83,1301.04,716.35,1286.2z"/>
		<path class="st1" d="M788.62,1115.02c0.14,0.78,0.29,1.58,0.17,2.37c-0.23,1.51-1.4,2.72-1.82,4.18
			c-0.74,2.55,0.91,5.19,2.82,7.03c1.92,1.84,4.24,3.39,5.46,5.74c2.05,3.95,0.59,9.35,3.53,12.68c-0.92,2.27-4.35,1.58-6.35,0.16
			c-1.99-1.42-4.44-3.28-6.59-2.12c-2.53,3.65-1.13,8.67,0.87,12.64c2,3.97,4.59,8.02,4.19,12.44c-0.19,2.08-1.76,4.48-3.8,4
			c-0.78-0.19-1.4-0.77-1.98-1.32c-2.74-2.64-5.63-5.57-6.14-9.34c-0.38-2.74,0.59-5.47,1.28-8.15c1.42-5.53,1.69-11.34,0.8-16.98
			c-0.38-2.42-0.98-4.83-0.89-7.27c0.17-4.54,2.56-9.58-0.09-13.27c-0.83-1.15-2.16-2.44-1.54-3.71c1.13-2.32,6.15-6.67,7.93-8.49
			C787.64,1108.56,788.04,1111.84,788.62,1115.02z"/>
		<path class="st1" d="M502.53,1498.42c3.7,2.73,8.32,4.68,10.49,8.74c1.67,3.13,1.67,7.22,4.25,9.66c1.38,1.31,3.3,1.92,4.7,3.21
			c3.27,3.02,2.55,8.31,4.13,12.47c2.24,5.9,9.11,9.4,10.42,15.57c0.45,2.11,0.19,4.39,1.1,6.34c1.75,3.72,6.77,4.51,9.57,7.52
			c1.38,1.48,2.15,3.43,3.33,5.07c3.35,4.64,10.31,6.22,15.33,3.47c-1.79-2.74-2.79-5.98-2.87-9.25c-0.04-1.93,0.23-3.88-0.14-5.77
			c-0.89-4.57-5.25-7.79-6.46-12.29c2.05-1.5,4.73,0.71,6.26,2.73c1.53,2.03,4.09,4.31,6.22,2.94c-3.89-5.09-8.33-9.75-13.23-13.88
			c0.39,1.85-2.1,3.22-3.88,2.57c-1.77-0.65-2.84-2.41-3.77-4.06c-0.7-1.24-1.42-2.58-1.29-3.99c0.11-1.18,0.8-2.24,1.01-3.41
			c0.44-2.45-1.32-4.78-3.33-6.25c-2.01-1.47-4.38-2.47-6.13-4.24c-3.49-3.53-4.08-9.66-8.45-12.02c-2.09-1.13-4.63-1.12-6.75-2.2
			c-6.58-3.35-7.84-13.09-15.35-16.09C497.03,1481.04,494.78,1492.71,502.53,1498.42z"/>
		<path class="st1" d="M568.29,1572.07c-1.56,2.18-3.13,4.37-4.69,6.55c-0.34,0.47-0.69,0.99-0.69,1.57
			c0.01,1.62,2.33,1.86,3.94,1.64c5.08-0.7,10.3-0.44,15.29,0.76c8.42,2.02,16.44,6.71,25.08,6.16c1.31-0.08,2.63-0.29,3.93-0.09
			c1.4,0.21,2.69,0.87,4.05,1.27c3.14,0.93,6.68,0.41,9.42-1.39c-2.33-2.25-5.97-2.08-9.19-2.32c-3.22-0.24-7.06-1.71-7.45-4.92
			c-0.11-0.87,0.07-1.77-0.15-2.62c-0.47-1.81-2.54-2.71-4.4-2.81c-1.86-0.11-3.75,0.31-5.58-0.04c-3.09-0.59-5.46-3.45-8.52-3.88
			c-3.1-0.43-4.47,1.93-6.97,2.05C577.2,1574.23,573.12,1565.33,568.29,1572.07z"/>
		<path class="st1" d="M641.44,1590.39c2.71,0.06,5.37,2.2,7.91,1.26c0.64-0.24,1.23-0.67,1.91-0.73c0.85-0.07,1.62,0.43,2.39,0.78
			c7.45,3.44,16-6.38,23.65-3.39c-1.78,7.25-11.36,9.54-15.13,15.98c6.5-0.95,12.62-4.26,16.98-9.18c1.18-1.34,2.27-2.81,3.78-3.77
			c0.86-0.55,1.84-0.91,2.7-1.47c2.01-1.31,3.23-3.75,3.06-6.15c-2.22-0.05-4.45,0.49-6.39,1.57c-1.44,0.8-2.76,1.89-4.36,2.25
			c-2.67,0.61-5.32-0.93-8.03-1.31c-5.73-0.81-11.24,5.16-16.46,4.17c-2.05-0.39-3.11-2.71-5.73-3.36
			c-2.11-0.53-5.48,0.38-7.87,0.04c-2.67-0.38-8.18-3.09-10.19-0.24C623.7,1595.22,639.97,1590.36,641.44,1590.39z"/>
		<path class="st1" d="M639.98,1598.34c1.15-1.28,3.35-0.48,4.48,0.82c1.13,1.3,1.85,3.01,3.31,3.92c1.47,0.91,3.53,0.72,4.81-0.45
			c0.75-0.69,1.23-1.8,0.84-2.75c-0.39-0.96-1.47-1.4-2.45-1.74c-0.95-0.33-1.9-0.67-2.85-1c-1.66-0.59-3.4-1.18-5.15-0.94
			c-1.75,0.24-3.48,1.59-3.5,3.36"/>
		<path class="st1" d="M593.49,1548.06c-3.13,0.33-7.23,0.61-8.44-2.3c-0.71-1.71,0.09-3.64,0.14-5.5c0.08-3.04-1.88-5.69-3.28-8.39
			c-2.46-4.72-3.34-10.25-2.48-15.5c0.22-1.33,0.58-2.71,1.5-3.69c0.59-0.62,1.36-1.03,2.12-1.43c2.91-1.53,5.83-3.06,8.74-4.59
			c3.82-2,7.64-4.01,11.23-6.41c8.94-5.98,16.26-14.36,20.97-24.03c1.63-1.73,4.65-0.1,5.74,2.01c1.09,2.12,1.36,4.71,3.04,6.4
			c2.57,2.59,8.2,3.17,7.77,6.79c-0.17,1.43-1.39,2.47-2.38,3.52c-3.49,3.67-4.93,9.17-3.69,14.08c1.24,4.91,5.12,9.07,9.93,10.65
			c-4.41,0.42-10.09,2.15-10.1,6.57c-0.01,2.79,2.47,5.73,0.94,8.06c-1.59,2.43-5.85,1.29-7.73,3.5c-1.51,1.77-0.57,4.44-0.25,6.75
			c0.8,5.77-3.68,11.76-9.44,12.63c-2.43,0.37-5.27-0.29-6.49-2.42c-0.64-1.12-0.75-2.46-1.27-3.64c-2.12-4.74-5.29-1.89-8.4-1.93
			C599.46,1549.17,596.4,1547.75,593.49,1548.06z"/>
		<path class="st1" d="M679.4,1514.14c0.52-0.17,1.03-0.34,1.55-0.52c-1.1-0.73-2.59-0.5-3.66,0.27c-1.07,0.76-1.84,1.88-2.72,2.86
			c-3.05,3.4-7.74,5.25-12.28,4.85c-2.86-0.25-5.71-1.34-8.52-0.8c-3.46,0.67-6.07,3.75-7.1,7.12c-0.52,1.7-0.02,4.28,1.74,4.14
			c0.98-3.03,3.74-5.26,6.77-6.22c3.04-0.96,6.32-0.81,9.45-0.24c2.46,0.44,4.94,1.13,7.41,0.81c2.48-0.32,5.01-2.02,5.3-4.5
			c0.22-1.8-0.75-3.73,0.02-5.37c0.67-1.42,2.56-2.69,1.82-4.08C678.38,1512.62,680.21,1513.99,679.4,1514.14z"/>
		<path class="st1" d="M641.34,1554.16c1.14,5.12,3.54,10.48,1.67,15.38c2.06,0.93,4.53-0.81,5.23-2.96
			c0.7-2.15,0.15-4.48-0.38-6.68c-0.53-2.2-1.04-4.55-0.28-6.68c0.18-0.49,0.48-1.01,0.99-1.12c0.25-0.06,0.51,0,0.76,0.07
			c2.79,0.8,4.7,3.45,5.58,6.22c0.88,2.77,0.94,5.71,1.34,8.59c0.25,1.79,0.74,3.75,2.25,4.76c2.48,1.66,6.01-0.56,6.94-3.39
			c0.93-2.83,0.18-5.9-0.22-8.85c-0.55-4.1-0.86-9.05-4.49-11.04c-1.49-0.82-3.58-1.18-4.06-2.82c-0.58-1.96,1.74-3.47,3.7-4.05
			c1.78-0.52,3.61-0.9,5.45-1.13c2.2-0.27,5.05-0.89,5.27-3.1c0.23-2.29-2.66-3.43-4.93-3.82c-2.73-0.46-5.51-0.93-8.26-0.57
			c-2.75,0.36-5.51,1.66-6.96,4.02c-0.31,0.5-0.59,1.07-1.14,1.3c-0.76,0.31-1.62-0.26-2.06-0.94c-0.45-0.69-0.68-1.51-1.19-2.15
			C640.61,1527.86,640.89,1552.17,641.34,1554.16z"/>
		<path class="st1" d="M690.73,1549.03c-3.02-0.71-6.22-0.64-9.2,0.21c-0.54,0.15-1.17,0.45-1.2,1.01c-0.03,0.6,0.65,0.95,1.23,1.11
			c2.87,0.78,6.02,0.45,8.67-0.9c-0.4-1.18-1.96-1.79-3.06-1.2"/>
		<path class="st1" d="M703.69,1547.44c-1.52-0.78-3.49-0.55-4.79,0.54c-1.3,1.1-1.86,3-1.35,4.63c3.02,0.76,6.08-2.8,8.95-1.62
			c1.89,0.77,2.85,3.37,4.89,3.48c1.74,0.09,2.97-2.35,1.86-3.69c-0.94-1.13-2.71-1.12-3.85-2.06c-2.06-1.7-0.78-5.01,0.62-7.28
			c-2.3-0.5-4.01,2.19-4.31,4.52c-0.13,1.03-0.15,2.1-0.63,3.02c-0.48,0.92-1.61,1.61-2.55,1.17"/>
		<path class="st1" d="M690.85,1533.25c-0.03,0.84-0.05,1.72,0.33,2.47c0.38,0.75,1.31,1.29,2.08,0.95
			c0.58-0.26,0.87-0.89,1.11-1.48c0.78-1.88,1.56-4.04,0.68-5.88c-0.39-0.83-1.09-1.5-1.4-2.36c-0.9-2.58,2.22-3.98,4.23-3.78
			c-0.47-3.26-3.25-0.95-3.26-4.5c0-0.54,6.12-2.88,1.03-3.73C689.01,1513.81,691.01,1528.93,690.85,1533.25z"/>
		<path class="st1" d="M718.39,1529.2c-3.07,0.23-6.43,0.15-8.84-1.77c-2.27,1.89-0.78,5.83,1.72,7.4c2.51,1.57,5.63,1.85,8.23,3.27
			c2.6,1.42,4.55,5,2.66,7.28c2.08,0.54,4.16,1.08,6.24,1.62c0.48,1.96-1.74,3.36-3.42,4.47c-1.68,1.11-3.04,3.85-1.3,4.85
			c0.81,1.74,3.4,1.46,5.08,0.54c1.68-0.92,3.48-2.24,5.32-1.68c1.19,0.36,2,1.44,2.87,2.33c3.68,3.75,9.29,4.65,14,6.96
			c4.72,2.31,8.98,7.9,6.42,12.49c-0.97,1.74-2.71,2.88-4.02,4.37c-1.31,1.49-2.18,3.79-1.05,5.42c4.15,0.28,8.38-1.04,11.63-3.63
			c3.34,3.58,7.28,6.91,12.06,7.95c4.78,1.04,10.5-0.93,12.37-5.45c0.37-0.9,0.62-1.91,1.37-2.53c1.05-0.86,2.6-0.58,3.91-0.21
			c4.02,1.13,7.95,2.59,11.73,4.36c0.72,0.34,1.49,0.74,1.83,1.46c0.49,1.04-0.11,2.24-0.27,3.38c-0.6,4.24,4.64,6.68,8.85,7.43
			c5.71,1.01,11.52,1.54,17.32,1.56c0.2-2.91-2.95-4.9-5.79-5.54c-2.85-0.64-6.04-0.73-8.21-2.68c-2.55-2.3-2.79-6.47-5.46-8.62
			c-2.01-1.62-5.55-2.68-5-5.2c0.58-2.7,5.32-2.35,6.23-4.95c0.56-1.61-0.84-3.32-2.44-3.92c-1.6-0.6-3.37-0.49-5.04-0.81
			c-4.19-0.79-7.64-4.55-8.07-8.8c-0.16-1.61,0.05-3.31-0.6-4.78c-0.99-2.24-3.57-3.21-5.9-3.96c-12.38-3.99-24.76-7.98-37.15-11.98
			c-1.78-0.57-3.71-1.15-5.48-0.53c-4.75,1.66-4.42,10.21-9.38,11.11c-2.57,0.47-4.84-1.59-6.65-3.48
			c-1.77-1.85-4.31-4.51-4.54-7.22c-0.16-1.86,1.74-3.49,1.56-5.13C730.52,1528.24,723.27,1528.83,718.39,1529.2z"/>
		<path class="st1" d="M715.87,1578.37c-2.84,2.42-5.42,5.15-7.66,8.13c1.71,0.84,3.94,0.39,5.2-1.03c1.26-1.42,1.43-3.7,0.39-5.29"
			/>
		<path class="st1" d="M734.7,1566.51c1.67,1.26,3.18,3.04,3.24,5.14c0.06,2.09-2.01,4.23-4,3.57c0.39-3,0.78-6,1.16-9"/>
		<line class="st1" x1="791.88" y1="1667.84" x2="793.43" y2="1666.81"/>
		<path class="st1" d="M645.43,1409.31c-0.35,1.02-0.7,2.06-0.69,3.13c0.06,3.69,4.32,6.19,4.63,9.86c0.12,1.46-0.41,2.91-0.4,4.37
			c0.01,1.47,0.9,3.16,2.37,3.18c1.27,0.01,2.15-1.19,3.05-2.07c0.91-0.89,2.59-1.46,3.3-0.4c0.31,0.46,0.28,1.07,0.23,1.63
			c-0.39,3.93-1.46,7.79-3.15,11.36c2.12,0.84,4.6-0.53,5.77-2.48c1.17-1.95,1.37-4.32,1.53-6.59c0.08-1.13,0.16-2.31-0.3-3.35
			c-0.69-1.56-2.38-2.4-3.5-3.7c-2.07-2.41-1.86-6.08-0.7-9.04c1.16-2.96,3.11-5.56,4.28-8.52c0.31-0.77,0.56-1.59,0.44-2.41
			c-0.13-0.85-0.64-1.58-1.01-2.35c-0.93-1.91-1.03-4.1-1.43-6.19C656.31,1377.49,646.54,1406.11,645.43,1409.31z"/>
		<path class="st1" d="M680.32,1437.72c0.39,3.38-1.03,6.92-3.65,9.09c-0.59,0.49-1.25,0.93-1.62,1.61
			c-1.25,2.31,1.66,4.51,3.75,6.09c6.57,4.97,7.37,15.91,1.59,21.78c-0.54,0.55-1.15,1.08-1.48,1.78c-0.33,0.68-0.38,1.47-0.39,2.23
			c-0.04,3.45,0.57,6.91,1.81,10.13c-3.42,1.71-7.69-1.11-9-4.71c-1.31-3.6-0.55-7.57,0.07-11.34c0.23-1.4,0.42-2.96-0.38-4.14
			c-1.29-1.91-4.41-1.51-6.02,0.13c-1.61,1.64-2.16,4.01-2.8,6.22c-0.64,2.21-1.59,4.55-3.61,5.67
			c-1.53-7.68,4.76-15.96,12.57-16.55c1.71-0.13,3.52,0.04,5.04-0.73c1.53-0.78,2.44-3.05,1.18-4.21c-1.49,0.05-2.08-1.93-1.95-3.42
			c0.13-1.48,0.38-3.29-0.82-4.17c-1.23-0.9-3.04,0.03-3.85,1.32c-0.82,1.29-1.07,2.87-1.87,4.16c-1.2,1.95-3.66,3.05-5.91,2.63
			c-0.13-3.4,1.89-6.78,4.94-8.29c-2.71-0.96-5.5-2.5-6.56-5.18c-1.06-2.67,0.8-6.45,3.66-6.21c1.02,2.63,2.04,5.25,3.06,7.88
			c2.22,1.39,5.35-0.01,6.65-2.29c1.29-2.28,1.19-5.08,0.83-7.67c2.9,1.48,6.22-2.59,5.03-5.62c-0.68-1.74-2.28-2.94-3.89-3.17
			C678.52,1432.6,680.02,1435.1,680.32,1437.72z"/>
		<path class="st1" d="M246.21,935.35c1.97-1.4,0.47-4.81-1.82-5.58c-2.3-0.77-4.79-0.02-7.21,0.06c-2.42,0.07-5.34-1.07-5.6-3.48
			c-0.08-0.71,0.1-1.43,0.38-2.09c1.69-4.01,6.45-5.61,9.57-8.65c4.84-4.74,5.27-12.53,9.52-17.81c5.88-7.3,16.99-7.62,24.52-13.2
			c2.37-1.75,4.34-4.01,6.8-5.64c6.37-4.21,14.63-3.51,22.26-3.72c10-0.27,19.95-2.38,29.19-6.21
			c-1.96,9.27-13.05,12.74-22.24,15.06c-6.18,1.56-12.3,3.36-18.33,5.4c-7.68,2.6-15.37,5.65-21.65,10.77
			c-6.29,5.12-11.06,12.63-11.17,20.73c-0.06,4.25,5.03,13.45,2.21,16.75C259.3,941.61,249.84,936.97,246.21,935.35z"/>
		<path class="st1" d="M480.07,827.13c-2.31,0.74-4.63,1.48-6.94,2.22c2.13,3.29,6.55,4.89,10.3,3.74c3.92-1.2,7.75-5.04,11.43-3.23
			c0.95,1.77-1.22,3.53-2.98,4.49c-1.76,0.96-3.64,3.25-2.21,4.66c0.35,0.34,0.82,0.51,1.28,0.66c8.08,2.59,17.29,0.39,25.02,3.89
			c2.43,1.1,4.79,2.78,7.46,2.66c2.67-0.12,5.17-3.49,3.33-5.43c-1.2-1.26-3.65-1.28-4.13-2.96c-0.88-3.07,6.36-4.31,4.95-7.18
			c-5.24,0.16-10.48,0.32-15.71,0.48c-1.78,0.06-3.96-0.12-4.73-1.72c-0.44-0.91-0.27-2.06-0.87-2.87c-0.74-0.99-2.2-0.96-3.42-0.84
			c-2.77,0.28-5.54,0.56-8.3,0.84c6.06-0.61,13.99-3.84,20.07-5.31C506.53,812.13,483.22,813.23,480.07,827.13z"/>
		<path class="st1" d="M553.25,840.43c-0.13-3.41-4.83-4.9-7.91-3.44s-4.93,4.59-7.02,7.28c-2.5,3.23-5.54,6-8.56,8.75
			c7.93-1.02,15.87-2.05,23.8-3.07c3.07-0.4,6.74-1.28,7.66-4.23c-3.08-2.1-6.68-3.42-10.38-3.83"/>
		<path class="st1" d="M761.33,888.55c1.01-0.61,1.93-1.4,3.07-1.73c4.52-1.31,8.39,5.36,12.98,4.27c1.93-0.46,3.3-2.22,5.16-2.92
			c4.35-1.66,9.2,2.89,13.33,0.09c5.38-3.66,3.06-6.79-1.17-8.44c-3.89-1.52-9.91,0.08-14.28-1.18c-3.24-0.93-6.05-2.72-9.12-4.04
			c-7.22-3.08-18.65-8.25-23.57,1.06C743.31,884.04,753.1,893.49,761.33,888.55z"/>
		<path class="st1" d="M825.41,886.28c-3.21-2.63-6.93-4.62-10.89-5.83c-0.56-0.17-1.14-0.33-1.73-0.3
			c-2.11,0.09-3.44,2.72-2.76,4.72c0.68,2,2.74,3.26,4.82,3.66c2.08,0.4,4.21,0.11,6.32-0.04c4.43-0.3,8.91,0.05,13.24,1.05
			c0.81-2.78-1.92-5.57-4.78-5.95c-2.87-0.39-5.67,0.88-8.28,2.11"/>
		<path class="st1" d="M784.64,902.4c-2.46-1.18-5.09-1.99-7.79-2.41c-1.43-0.22-3.54,0.36-3.19,1.76c0.15,0.6,0.74,0.97,1.29,1.27
			c3.69,2.01,7.62,3.58,11.68,4.68c1.87,0.51,4.47,0.56,5.11-1.28c0.44-1.29-0.49-2.64-1.55-3.5c-2.56-2.1-6.18-2.84-9.36-1.91"/>
		<path class="st1" d="M80.78,1218.2c-3.51,7.22-5.1,15.26-3.72,23.16c2.37,13.6,12.93,26.17,9.95,39.66
			c-4.6-1.2-9.21-2.41-13.81-3.58"/>
		<path class="st1" d="M130.25,1036.17c-0.28,0.85-0.64,1.66-0.99,2.48"/>
		<path class="st1" d="M131.14,1030.79c-0.07-3.26-1.45-6.3-3.58-8.85"/>
	</g>
</g>
</svg>
