<?xml version="1.0" encoding="utf-8"?>
<!-- Generator: Adobe Illustrator 24.0.0, SVG Export Plug-In . SVG Version: 6.00 Build 0)  -->
<svg version="1.1" id="Layer_1" xmlns="http://www.w3.org/2000/svg" xmlns:xlink="http://www.w3.org/1999/xlink" x="0px" y="0px"
	 viewBox="0 0 1080 1920" style="enable-background:new 0 0 1080 1920;" xml:space="preserve">
<style type="text/css">
	.st0{fill:#ED1C2B;}
	.st1{fill:#ED202A;}
	.st2{fill:#67BC45;}
	.st3{fill:#F26728;}
	.st4{font-family:'LeelawadeeUI-Bold';}
	.st5{font-size:148.4368px;}
</style>
<path class="st1" d="M1000.38,895.45c-5.63,9.76-15.17,17.19-26.02,20.25c-5.11,1.45-10.8,2.12-14.66,5.77
	c-2.39,2.26-3.74,5.38-5.02,8.41c-2.53,5.96-5.1,12.1-5.24,18.57c-0.14,6.47,2.73,13.44,8.56,16.26
	c-8.12,4.02-8.91,17.44-1.33,22.39c-3.1,7.73-16.07,3.41-22.19,9.06c-4.76,4.39-2.91,12.25-0.05,18.05
	c2.87,5.8,6.5,12.29,4.19,18.33c-8.71-3.39-17.41-6.79-26.12-10.18c-3.29,7.1,6.16,15.9,13.01,12.11
	c-6.59,11.85-24.16,9.52-36.5,15.12c-13.18,5.99-20.27,21.38-33.59,27.04c-6.56,2.79-14.01,2.91-20.54,5.75
	c-6.53,2.84-12.18,10.38-9.1,16.81c0.61,1.27,1.55,2.52,1.38,3.92c-0.17,1.47-1.49,2.49-2.62,3.45
	c-10.7,9.12-10.82,25.32-10.07,39.36c-3.81,2.86-9.2-1.02-11.3-5.3c-2.1-4.27-3.18-9.52-7.21-12.07c-4.01-2.54-9.39-1.32-13.77-3.13
	c-4-1.65-6.56-5.52-8.88-9.18c-4.34-6.86-8.68-13.72-13.02-20.57c-3.65-5.78-7.39-11.77-8.41-18.53
	c-1.02-6.76,1.42-14.54,7.48-17.68c4.29-2.22,11.25-5.58,8.15-9.28c-0.69-0.83-1.76-1.22-2.78-1.58c-7.87-2.8-15.73-5.59-23.6-8.39
	c3.06-9.48,14.05-15.61,23.73-13.24c3.56-5.69-4.67-11.94-11.39-11.83c-6.71,0.11-14.2,2.55-19.65-1.38
	c5.07-7.06,4.8-17.08,0.72-24.75c-4.08-7.68-11.44-13.21-19.4-16.71c-3.55-1.56-7.32-2.79-11.2-2.84c-6.13-0.09-12,2.72-18.12,2.76
	c-8.67,0.06-16.59-5.57-21.56-12.67c-4.97-7.11-7.52-15.58-9.99-23.9c6.99,3.86,16.2,4.08,22.69-0.56c6.5-4.64,9.17-14.4,4.92-21.16
	c8.83-1.98,17.66-3.95,26.49-5.93c2.23-0.5,4.52-1.02,6.45-2.24c2.47-1.56,4.13-4.12,6.37-6c4.29-3.6,10.22-4.36,15.78-4.98
	c14.9-1.66,29.81-3.31,44.71-4.97c2.86-0.32,5.81-0.63,8.59,0.11c7.33,1.95,13.97,10.83,20.54,7.05c0.26-2.89-0.6-5.86-2.37-8.16
	c8.38-3.85,18.07-2.67,27.29-2.54c18.59,0.27,36.98-4.03,55.56-4.3c18.23-0.27,36.52,3.41,53.23,10.7
	c-5.59,3.86-11.98,6.57-18.64,7.91c4.35-0.27,8.76,0.48,12.78,2.17c-3.2-1.35-17.68,10.08-19.99,12.14
	c7.88,6.12,25.19-6.55,33.33-10.43C967.43,897.11,983.18,892.9,1000.38,895.45z"/>
<path class="st1" d="M325.25,1024.91c-19.65,8.18-40.04,16.32-61.32,16.06c-9.23-0.11-18.35-1.81-27.42-3.51
	c-19.72-3.69-39.65-7.43-58-15.55c-4.9-2.17-9.83-4.68-15.18-5.01c-5.98-0.37-11.76,2.05-17.12,4.71
	c-16.26,8.07-31.16,18.89-43.87,31.86c13.22,2.08,25.5,9.56,33.42,20.34c-6.25,3.03-14.67,0.24-17.87-5.92
	c-8.38-2.44-18.15,4.2-18.98,12.89c-0.83,8.69,7.51,17.05,16.2,16.25c3.08-4.09,7.85-6.87,12.94-7.54
	c2.39,4.03,4.79,8.06,7.18,12.09c-4.18,5.04-11.52,5.56-17.91,7.01c-6.38,1.45-13.58,5.95-12.84,12.45
	c1.23,10.84,22.04,11.75,21.13,22.62c0.31-3.69,43.33-6.56,22.52,18.13c-3.26,3.87-8.16,6.67-13.2,6.23
	c1.4,3.96,1.08,8.89-2.03,11.71c-3.12,2.82-9.23,1.8-10.21-2.28c-3.33,7.12-12.52,8.81-20.35,9.59c-0.93,3.15-1.85,6.3-2.78,9.45
	c-0.63-3.93-5.82-6.25-9.21-4.17c-3.39,2.08-3.71,7.67-0.63,10.19c2.87,2.34,7.04,1.77,10.67,1.08c1.36-0.26,2.91-0.66,3.49-1.91
	c0.36-0.77,0.25-1.66,0.28-2.51c0.14-4.14,3.75-7.41,7.62-8.88c3.87-1.47,8.1-1.63,12.12-2.57c6.66-1.55,12.66-5.2,17.99-9.49
	c5.8-4.67,11.02-10.19,17.59-13.69c2.52-1.34,5.21-2.36,7.63-3.86c17.84-11.06,6.46-30.21,32.85-33.5c0.37,3.66-2.14,7.41-5.67,8.46
	c8.45,6.25,17.71-13.42,27.61-9.9c2.79,0.99,4.6,3.65,7,5.39c4.45,3.22,10.4,2.99,15.87,3.46c21.78,1.85,41.66,18.01,47.92,38.95
	c9.53-2.81,17.46,7.37,22.2,16.09c7.83,14.41,15.66,28.82,23.49,43.24c4.97,9.15,9.99,18.42,12.57,28.51
	c3.69,14.43,2.21,29.78,5.66,44.27c3.45,14.49,14.61,29.23,29.5,28.84c2.41,22.7,9.06,44.95,19.5,65.25
	c-5.09,5.17,3.1,12.82,10.06,14.84c6.96,2.02,16.13,7.18,13.09,13.77c8.22-9.14-2.24-22.92-12.24-30.06s-21.74-18.97-15.48-29.54
	c3.41-3.44,9.39,0.57,10.99,5.14c1.61,4.57,1.46,9.98,4.69,13.6c2.83,3.16,7.4,3.96,11.05,6.13c13.23,7.85,10.45,30.17,23.25,38.7
	c4.68,3.11,10.83,3.84,14.88,7.73c2.91,2.8,4.27,6.79,6.17,10.35c6.72,12.57,20.25,19.69,33,26.07c3.72,1.86,7.43,3.72,11.15,5.58
	c21.29,10.66,42.58,21.32,63.87,31.97c2.05,1.02,4.41,2.07,6.54,1.23c8.75-3.46-9.12-19.03-1.69-24.8
	c-10.46-5.04-20.91-10.08-31.37-15.12c6.53-5.83,7.39-16.93,1.84-23.69c3.86-0.91,7.05-4.18,7.88-8.05
	c-4.61-4.79-13.03-0.83-16.61,4.77c-3.58,5.6-5.02,12.64-9.84,17.21c-10.91,10.35-30.22-0.63-34.44-15.06
	c-4.22-14.43,0.61-29.73,2.22-44.69c0.65-6.04,1.16-12.93,5.95-16.67c10.93-8.56,27.04,9.49,39.73,3.85
	c4.86-2.16,7.72-7.33,12.3-10.04c7.89-4.67,18.62-0.34,24.08,7.02c5.46,7.36,7,16.83,8.37,25.89c2.58,4.24,9.76-0.44,9.36-5.39
	s-4.48-8.65-7.16-12.81c-6.86-10.64-3.75-26.48,6.63-33.73c9.23-6.45,24.43-8.97,25.03-20.22c0.39-7.27-6.52-13.22-6.8-20.49
	c-0.25-6.4,4.59-11.73,9.11-16.26c12.77-12.83,25.55-25.65,38.32-38.48c3-3.01,6.63-6.26,10.85-5.78c4.22,0.48,6.58,7.46,2.56,8.84
	c15.06,0.58,35.24-3.05,36.45-18.08c-6.08,5.34-13.3,9.37-21.03,11.75c-0.8-7.15,1.29-14.59,5.72-20.27
	c-5.61-9.67-19.03-12.33-29.7-9c-10.67,3.33-19.22,11.19-27.39,18.82c12.27-14.47,28.68-26.6,47.52-28.8
	c7.1-0.83,14.71-0.34,20.88-3.93c8.59-5.01,16.19-17.62,24.85-12.73c-6.32,11.09-12.64,22.18-18.96,33.27
	c6.82-0.51,13.63-1.01,20.45-1.52c2.77,4.73,4.12,10.27,3.84,15.74c8.34-0.58,19.81-6.08,16.09-13.56
	c-1.89-3.8-6.83-4.76-10.12-7.45c-9.02-7.39-2-22.59-6.52-33.35c-2.26-5.38-7.2-9.06-11.71-12.76
	c-19.18-15.72-34.21-36.45-43.2-59.56c-2.19,5.49-4.6,11.26-9.34,14.78c-4.74,3.53-12.57,3.58-15.7-1.43
	c-1.71-2.75-1.61-6.22-2.5-9.34c-2.02-7.06-8.77-11.53-15.02-15.37c-7.59-4.67-16.53-9.51-24.95-6.6
	c-8.42,2.91-10.37,18.07-1.57,19.47c-8.2,0.3-7.93,13.03-3.25,19.78c4.67,6.74,11.25,15.14,6.76,22.01
	c-3.97,6.09-14.04,5.49-18.04,11.57c-3.86,5.85,0.34,13.4,3.27,19.77c2.93,6.37,2.86,16.38-4.02,17.74
	c-5.87,1.16-10.13-5.64-11.23-11.53c-1.73-9.26-0.51-19.31-4.84-27.68c-4.33-8.37-18.23-12.32-22.59-3.96
	c-2.39-8.52-9.29-15.62-17.74-18.26c-6.86-2.14-14.51-1.5-21.02-4.54c-9.75-4.55-14.13-15.76-17.61-25.94
	c12.73-7.28,26.29-15.47,31.96-28.99c1.53-3.64,2.52-7.72,5.4-10.41c2.59-2.43,6.28-3.29,9.17-5.36c2.88-2.07,4.73-6.63,2.13-9.05
	c3.74-2.28,8.31-3.17,12.63-2.44c7.39,10.02-15.27,27.11-4.6,33.53c5.75,3.46,11.97-3.65,14.94-9.67c4.65,1.87,9.3,3.75,13.95,5.62
	c6-4.87-1.05-14.18-7.91-17.72c-6.87-3.54-15.57-9.91-12.12-16.82c6.15-0.11,12.29-0.22,18.44-0.33c0.39-5.87-3.51-11.76-9.06-13.71
	c3.16-4.88,6.33-9.76,9.49-14.64c-2.88-3.17-7.54-4.59-11.69-3.56c12.44-1.83,24.6-5.64,35.86-11.23
	c9.22,10.53,17.9,21.53,25.99,32.95c1.3,1.83,2.63,3.84,2.58,6.09c-0.11,4.9-6.03,7-10.31,9.39c-4.28,2.39-6.87,9.99-2.12,11.2
	c-0.65,3.63-6.1,3.59-9.16,1.55c-3.06-2.05-5.88-5.26-9.55-5.05c-6.96,0.4-5.81,12.67,0.84,14.74c6.65,2.07,13.45-2.22,19.1-6.3
	c13,11.73,28.49,20.67,45.15,26.06c-6.72-1.4-11.62-8.69-10.38-15.44c7.8,2.25,15.23,5.77,21.9,10.39
	c5.67-6.89-1.59-16.91-9.02-21.86c-7.43-4.95-16.73-11.07-15.56-19.92c9.75-0.24,19.41,5.32,24.11,13.86
	c3.69-5.25,7.39-10.5,11.08-15.75c-4.18-13.81-30.83-9.58-33.6-23.75c-0.54-2.73,0-5.87-1.71-8.07c-2.66-3.42-7.99-1.74-12.32-1.88
	c-15.15-0.47-24.32-25.84-38.3-19.99c5.84-10.94-10.77-24.8-20.49-17.08c5.34,1.98,11.14,4.74,13.09,10.09
	c1.95,5.35-3.73,12.67-8.69,9.88c-5.02-2.82-2.62-10.77-5.39-15.82c-3.37-6.15-13.52-4.92-17.61,0.78
	c-4.08,5.7-3.57,13.46-1.94,20.28c-3.37-0.08-6.75-0.17-10.12-0.25c-0.74-9.54,1.12-19.27,5.31-27.87
	c-3.95-5.9-12.94-0.23-17.29,5.38c-4.57,5.9-9.28,12.08-10.71,19.41c-1.43,7.32,1.56,16.09,8.54,18.73
	c4.48,1.69,9.65,0.61,14.1,2.37c10.19,4.02,6.17,23.03-4.77,22.58c-3.38-5.56-5.36-11.96-5.7-18.45
	c-5.27,1.55-10.19,4.29-14.27,7.97c-5.35-13.2-12.79-25.55-21.96-36.45c2.18-4.22,4.36-8.43,6.54-12.65
	c8.78,3.84,20.02-5.56,17.81-14.88c-7.29-2.04-14.96-4.1-22.34-2.44c-7.39,1.67-14.22,8.42-13.19,15.92
	c0.62,4.5,3.81,8.24,4.99,12.62c1.18,4.39-1.46,10.52-5.94,9.78c-2.34,10.66,20.25,10.92,21.26,21.79
	c0.71,7.62-9.64,10.62-17.29,10.52c2.24,7.35,1.89,15.45-0.96,22.58c-5.74-10.78-2.6-25.49,7.05-32.98
	c-5.79-8.9-19.18-11.71-28.06-5.88c3.32,5.07,8.57,8.84,14.44,10.36c-3.1,3.59-6.19,7.18-9.29,10.77
	c-6.71-4.82-15.9-1.04-24.15-0.57c-8.25,0.47-18.27-8.64-12.45-14.5c-4.96-3-11.69-4.02-16.4-0.65c-4.71,3.38-5.1,11.96,0.15,14.4
	c-10.96,2.82-29.12-17.34-37.05-1.9c-4.96-15.71-12.95-20.39-28.68-21.2c-10.44-0.53-41.39-8.26-46.72,0.51
	C329.41,1036.07,325.04,1025,325.25,1024.91z"/>
<path class="st1" d="M354.25,983.7c-5.94,0.64-9.25,7.3-10.01,13.22c-0.76,5.92-0.18,12.29-3.1,17.5c-0.72,1.29-1.66,2.51-1.89,3.97
	c-0.66,4.17,4.74,6.83,8.91,6.17c12.14-1.94,19.76-18.52,31.87-16.46c0.12,3.25,0.24,6.51,0.36,9.76c7.98,0.07,15.97-1.09,23.6-3.41
	c2.32,1.51,1.02,5.46-1.46,6.68c-2.48,1.23-5.42,0.82-8.17,1.07c-2.76,0.25-5.9,1.75-6.19,4.5c5.33-1.55,10.9-3.1,16.35-2.06
	c5.45,1.04,10.66,5.57,10.48,11.12c-7.73-0.35-15.48-0.06-23.16,0.84c4.23,5.02,11.9,4.43,18.43,5.13
	c6.53,0.7,14.27,5.94,11.97,12.08c8.84-9.32,23.59-12.44,35.45-7.51c2.96,1.23,5.78,2.92,8.92,3.55s6.87-0.09,8.63-2.78
	c1.76-2.68,0.01-7.24-3.2-7.14c4.16-0.57,7.8-3.88,8.78-7.97c-7.15,2.32-15.76-1.64-18.65-8.58c-2.62-6.3-1.06-14.39-5.75-19.34
	c4.09,1.23,8.17-3.64,7.18-7.8c-0.99-4.16-5.47-6.76-9.74-6.86c-2.81-0.07-5.83,0.87-7.49,3.14c-1.66,2.27-1.35,6,1.09,7.41
	c-3.29-1.6-6.59-3.21-9.88-4.81c-1.31,8.06,14.54,12.88,10.82,20.16c-2.37,4.64-10.44,1.71-11.39-3.41
	c-0.63-3.37,0.15-7.85-2.94-9.34c-5.88-2.84-10.18,11.59-15.8,8.26c0.35-3.24,0.71-6.47,1.06-9.71c-7.25-0.58-14.7,2.04-19.99,7.03
	c0.66-3.14,1.32-6.27,1.97-9.41c-7.86-4.36-15.66,11.1-24.16,8.16c8.17,2.83,26.47-13.14,12.08-19.9
	c-3.45-1.62-10.65,0.91-14.48,0.64C368.01,987.11,361.01,982.98,354.25,983.7z"/>
<path class="st1" d="M389.99,950.24c-5.58-2.79-12.37,0.24-17.1,4.3c-4.73,4.06-8.67,9.27-14.32,11.91
	c-2.67,1.25-5.84,2.02-7.5,4.46c9.39-0.13,18.78-0.76,28.1-1.9c-0.52,3.17-2.11,6.15-4.45,8.36c4.37,1.6,8-3.9,8.6-8.51
	c0.19-1.43,0.36-3.06,1.5-3.94c0.92-0.71,2.17-0.72,3.32-0.9c3.96-0.64,7.43-4.39,6.95-8.36c-0.48-3.98-5.7-6.77-8.93-4.4"/>
<path class="st1" d="M419.32,976.38c1.15-0.62,1.78-2.07,1.45-3.33c-5.83,0.19-11.39-4.65-12-10.46c-3.32-2.12-8.4-0.47-9.84,3.2
	c-1.44,3.67,1.16,8.33,5.04,9.04c-5.65,2.42-11.31,4.84-16.96,7.25c10.8,5.82,23.62-6.85,35.62-4.31c-0.01,1.45-0.01,2.9-0.02,4.35
	c-5.18,0.06-10.29,2.45-13.65,6.39c8.94,0.8,18.12-1.44,25.69-6.26c2.14-1.36,4.26-2.97,6.78-3.32c2.21-0.31,4.41,0.39,6.62,0.7
	c5.22,0.74,11.84-2.22,11.65-7.49c-3.52-1.18-7.28-1.64-10.98-1.34c-1.13-6.85-9.69-11.29-15.94-8.27c0.1,4.72,2.3,9.35,5.89,12.41
	c-3.55,3.11-9.1,3.67-13.19,1.33c-1.95-1.11-3.73-2.84-5.97-2.86c-2.4-0.01-5.52,1.72-6.75-0.35"/>
<path class="st1" d="M426.05,942.21c-8.8-1.05-17.9,0.46-25.89,4.3c4.32,1.95,8.64,3.9,12.96,5.85c0.98,0.44,2.01,0.9,3.08,0.88
	c0.95-0.02,1.86-0.4,2.73-0.77c4.16-1.79,8.32-3.58,12.49-5.36c-0.72-1.06-1.44-2.11-2.16-3.17c1.86,1.26,4.66-0.57,4.78-2.81
	c0.12-2.24-1.77-4.21-3.91-4.87c-2.14-0.66-4.46-0.3-6.65,0.22c-2.54,0.6-5.03,1.41-7.44,2.42c1.27,2.66,3.77,4.69,6.63,5.39
	c0.05,1.05,0.09,2.1,0.14,3.15"/>
<path class="st1" d="M487.61,943.53c-1.91,0.1-3.05-2.18-3.14-4.09c-0.09-1.91,0.33-3.98-0.62-5.65c-2.33-4.1-8.62-1.07-13.27-1.81
	c-2.77-0.44-5.05-2.38-7.67-3.36c-2.63-0.98-6.36-0.43-7.11,2.27c-0.85,3.02,2.85,5.45,5.99,5.51c3.14,0.06,6.37-1.05,9.35-0.06
	c0.56,0.19,1.11,0.46,1.46,0.93c2.21,2.96-5.74,5.12-5.01,8.74c0.36,1.78,2.59,2.33,4.39,2.53c2.68,0.29,5.36,0.57,8.04,0.86
	c2.79,0.3,5.88,0.52,8.12-1.16c2.24-1.68,2.3-6.04-0.42-6.72"/>
<path class="st1" d="M501.79,971.8c1.57-1.83,0.61-4.87-1.35-6.27c-1.96-1.4-4.51-1.58-6.92-1.59c-7.02-0.05-14.04,0.86-20.81,2.68
	c-2.1,0.56-4.28,1.22-6.4,0.77c-2.12-0.45-4.1-2.48-3.62-4.6c-2.9,3.26,0.59,8.69,4.81,9.82c4.22,1.13,8.69-0.17,13.05,0.06
	c4.36,0.23,9.36,3.23,8.9,7.58c-0.11,1.04-0.52,2.13-0.1,3.08c0.51,1.14,1.97,1.48,3.21,1.42c5.81-0.27,10.25-7.12,8.13-12.53
	c-1.4,0.22-2.89-0.59-3.47-1.88c2.55-1,4.54-3.31,5.16-5.98c-4.74-1.79-10.26-1.36-14.67,1.14"/>
<path class="st1" d="M499.32,995.83c2.42-1.75,0.82-6.07-2.04-6.91s-5.88,0.67-8.25,2.49c-0.15,2.45-0.3,4.91-0.45,7.36
	c-2.83-0.6-5.9,0-8.3,1.61c4.19,1.12,7.62,4.68,8.58,8.91c-3.98,2.73-10.29,0.81-12.08-3.67c-0.83-2.08-1.13-4.89-3.27-5.58
	c-3.02-0.98-4.78,3.8-3.39,6.65c3.68,7.54,14.91,7.05,21.17,12.63c2.25,2.01,5.67,4.87,7.58,2.54c1.52-1.86-0.46-4.48-2.29-6.03
	c2.22,0.28,4.58,0.48,6.59-0.49c2.01-0.97,3.41-3.56,2.32-5.51c-0.57-1.01-1.64-1.62-2.54-2.35c-3.32-2.68-4.52-7.67-2.79-11.56
	c-1.2-0.5-2.39-1.01-3.59-1.51"/>
<path class="st1" d="M609.22,975.84c-7.58-4.55-16.99-5.96-25.57-3.82c-6.2,1.55-12,4.86-18.37,5.3
	c-9.32,0.65-18.24-5.19-23.32-13.03c7.06-4.84,17.39,4.65,24.84,0.42c2.14-1.22,3.64-3.43,5.89-4.44c2.3-1.02,4.95-0.6,7.43-0.15
	c11.92,2.13,23.84,4.27,35.76,6.4c1.4-5.1-2.95-10.93-8.24-11.02c6.24-2.52,12.49-5.03,18.74-7.54c3.15-1.27,6.53-2.72,8.24-5.66
	c1.72-2.93,0.5-7.69-2.87-8.11c14.38-5,28.31-11.29,41.58-18.76c-1.33-2.31-2.67-4.62-4.01-6.93c9.22,0.95,18.78-1.87,26.01-7.68
	c-10.35-0.85-20.86,0.13-30.87,2.89c17.23,2.17,35.06-0.72,50.71-8.24c-5.62-4.9-15.86,1.48-21.4-3.52
	c-1.66-1.5-2.49-3.76-4.18-5.22c-2.08-1.8-5.04-2.05-7.79-2.2c-28.11-1.51-56.34-0.71-84.32,2.38c-4.62,0.51-10.44,2.29-10.7,6.93
	c-6.7-0.28-13.4-0.55-20.1-0.83c-4.82,6.49-14.31,9.01-21.72,5.77c-1.67,2.66-3.35,5.31-5.02,7.97c4.68,3.22,10.53,4.71,16.18,4.1
	c3.46,7.12,14.65,8.68,19.92,2.77c2.34,8.06,14.4,6.55,21.56,2.15c7.15-4.4,16.34-10.02,23.04-4.95
	c-8.9,6.89-20.31,10.46-31.54,9.87c2.81,3.39,5.63,6.77,8.44,10.16c-6.9,0.43-13.03-3.96-19.07-7.34
	c-6.04-3.37-13.95-5.74-19.53-1.66c5.04,4.12,10.09,8.23,15.13,12.35c-13.9-7.32-27.8-14.64-41.71-21.97
	c-4.07-2.15-8.79-4.35-13.1-2.74c-4.32,1.6-5.62,9.15-1.17,10.36c-3.45,0.63-6.41,3.38-7.3,6.77c8.24,0.66,16.34,2.95,23.7,6.7
	c-3.47,1.11-6.93,2.23-10.4,3.34c7.92,2.58,15.83,5.16,23.75,7.74c1.61,0.53,3.45,1.04,4.94,0.21c1.49-0.83,2.03-2.66,2.86-4.15
	c2.49-4.46,8.88-6.17,13.26-3.56c-1.01,2.39-2.01,4.78-3.02,7.17c3.74,0.02,7.48,0.04,11.22,0.06c0.06,2.05,0.13,4.11,0.19,6.16
	c5.42,0.84,11,0.68,16.37-0.46c-1.96,7.27-12.52,7.91-19.11,4.25c-6.58-3.66-11.77-9.94-19.02-11.99
	c2.31,5.41,6.02,10.22,10.66,13.83c-9.67-1.56-19.74-0.6-28.94,2.77c-0.9-1.94-1.8-3.88-2.7-5.82c-7.57,3.14-6.43,14.09-3.96,21.91
	c0.72,2.29,1.48,4.65,3,6.51c3.45,4.22,9.61,4.71,15.06,4.87c8.2,0.24,16.4,0.47,24.6,0.71
	C584.68,987.2,609.66,992.56,609.22,975.84z"/>
<path class="st1" d="M519.26,967.02c2.25-1.55,6.31-0.24,7.35-2.77c0.78-1.9-1.25-3.71-3.04-4.72c-1.79-1.01-3.93-2.57-3.44-4.57
	c-1.6,0.23-3.27-0.12-4.65-0.96c3.43-0.9,6.86-1.8,10.29-2.71c1.31-0.34,2.97-1.52,2.19-2.63c-0.27-0.38-0.74-0.54-1.19-0.66
	c-2.12-0.55-4.44-0.62-6.3-1.77c-1.87-1.16-2.91-4.05-1.28-5.53c-1.18-0.11-2.35-0.21-3.53-0.32c-0.05-0.93-0.1-1.87-0.15-2.8
	c-6.08-0.16-12.15-0.66-18.17-1.48c-0.88,4.06,3.03,8.4,7.16,7.94c0.67-0.07,1.41-0.23,1.96,0.15c0.49,0.34,0.64,0.98,0.9,1.52
	c0.77,1.61,2.93,2.39,4.55,1.64c-0.48,1.17-1.28,2.21-2.3,2.96c1.96,1.04,4.12,1.72,6.33,1.98c-1.74,1.38-3.8,2.36-5.97,2.83
	c0.89,0.73,1.79,1.45,2.68,2.18c-2.29,0.05-4.59,0.09-6.88,0.14c-0.7,2.16,1.4,4.23,3.51,5.06c2.33,0.93,13.68,8.15,6.87,11.37
	c-3.86,1.83-5.48-4.55-4.12-6.98c2.16,5,1.5,11.96,5.29,16.33c2.76,3.19,6.96,3.78,9.65-0.42
	C531.62,975.53,520.38,973.35,519.26,967.02z"/>
<path class="st1" d="M577.06,1438.16c3.4,3.43,8.67-1.73,13.46-2.33c4.63-0.58,8.43,3.31,11.9,6.43c3.47,3.11,8.89,5.73,12.5,2.78
	c1.73,7.22,11.77,10.82,17.69,6.35c-0.54,2.55,2.82,4.29,5.38,3.84c2.56-0.45,4.85-2.07,7.45-2.26c3.75-0.27,7.38,3.06,7.42,6.82
	c0.08,1.38-1.85,1.88-3.18,1.54c-1.33-0.35-2.82-1.04-3.99-0.32c-0.83,0.51-1.15,1.53-1.72,2.31c-2.09,2.85-6.49,1.76-9.82,0.61
	c-3.34-1.15-8.09-1.48-9.36,1.81c10.48,2.07,21.4,1.91,31.82-0.47c-0.86,0.82-0.23,2.4,0.86,2.88c1.08,0.48,2.34,0.21,3.49-0.07
	c4.45-1.07,8.89-2.14,13.34-3.21c2.68,1.62,6.25,1.63,8.94,0.03c-0.18,1.22-0.37,2.44-0.55,3.67c5.22,2.26,11.96,0.1,14.89-4.78
	c-7.4-1.22-14.79-2.45-22.19-3.67c-5.31-0.88-10.75-1.81-15.39-4.53c-4.57-2.69-8.2-7.05-13.25-8.69
	c-7.04-2.29-15.13,1.3-21.98-1.52c-6.63-2.73-10.8-10.98-17.97-11.12c-2.33-0.04-4.79,0.82-6.91-0.15
	c-5.37-2.46-4.66-7.55-11.61-4.9C586.96,1429.72,578.23,1439.33,577.06,1438.16z"/>
<g>
	<text transform="matrix(1 0 0 1 290.9682 393.6816)"><tspan x="0" y="0" class="st1 st4 st5">NORTH</tspan><tspan x="-69.47" y="178.12" class="st1 st4 st5">AMERICA</tspan></text>
</g>
</svg>
