<?xml version="1.0" encoding="UTF-8" standalone="no"?>
<!-- Created with Inkscape (http://www.inkscape.org/) -->

<svg
   width="210mm"
   height="297mm"
   viewBox="0 0 210 297"
   version="1.1"
   id="svg1"
   xml:space="preserve"
   inkscape:version="1.4.4 (dcaf3e7d9e, 2026-05-05)"
   sodipodi:docname="logo-ink.svg"
   xmlns:inkscape="http://www.inkscape.org/namespaces/inkscape"
   xmlns:sodipodi="http://sodipodi.sourceforge.net/DTD/sodipodi-0.dtd"
   xmlns:xlink="http://www.w3.org/1999/xlink"
   xmlns="http://www.w3.org/2000/svg"
   xmlns:svg="http://www.w3.org/2000/svg"><sodipodi:namedview
     id="namedview1"
     pagecolor="#ffffff"
     bordercolor="#000000"
     borderopacity="0.25"
     inkscape:showpageshadow="2"
     inkscape:pageopacity="0.0"
     inkscape:pagecheckerboard="0"
     inkscape:deskcolor="#d1d1d1"
     inkscape:document-units="mm"
     inkscape:zoom="0.35355339"
     inkscape:cx="120.20815"
     inkscape:cy="462.44784"
     inkscape:window-width="1920"
     inkscape:window-height="1031"
     inkscape:window-x="0"
     inkscape:window-y="25"
     inkscape:window-maximized="1"
     inkscape:current-layer="layer2" /><defs
     id="defs1" /><g
     inkscape:label="image"
     inkscape:groupmode="layer"
     id="layer1"
     sodipodi:insensitive="true"
     style="display:none"><image
       width="285.75"
       height="213.25417"
       preserveAspectRatio="none"
       xlink:href="LOGO.png"
       id="image1"
       x="-38.099998"
       y="41.804169" /></g><g
     inkscape:groupmode="layer"
     id="layer2"
     inkscape:label="Layer 2"><g
       id="g12"
       inkscape:label="TVD-Store-Logo"
       inkscape:export-filename="Logo-TVD-Store-Logo.png"
       inkscape:export-xdpi="96"
       inkscape:export-ydpi="96"><path
         style="fill:#153566;fill-opacity:1;stroke:none;stroke-width:0.0859618;stroke-linecap:round;stroke-linejoin:round;stroke-miterlimit:0;paint-order:stroke fill markers"
         d="m 62.624064,113.07034 c 0,-0.009 29.200574,-2.71078 41.706536,15.64798 0.23412,0.14003 0.81236,0.31344 1.09535,-0.1261 7.84266,-12.18133 26.32481,-16.69519 41.47873,-15.61828 8.61121,12.33845 24.04299,34.70813 24.04299,34.61725 -20.17564,-2.49924 -45.63528,1.884 -60.54424,15.89328 -3.85577,3.59871 -9.98935,2.0598 -11.79725,0.1927 -14.086596,-12.08721 -37.859046,-19.71298 -59.83691,-15.98575 2.699035,-3.98429 23.854794,-34.62108 23.854794,-34.62108 z"
         id="path1"
         sodipodi:nodetypes="ccscccccc" /><path
         style="fill:#ffffff;stroke:none;stroke-width:0.0859618;stroke-linecap:round;stroke-linejoin:round;stroke-miterlimit:0;paint-order:stroke fill markers"
         d="m 64.198502,116.05855 c 15.294536,0.19279 32.035379,3.04831 38.943238,17.0939 -0.12853,17.15815 0.0653,21.88532 0.0653,21.88532 0.21215,0.18635 -10.771657,-11.74011 -28.533708,-15.84462 -16.708318,-3.66298 -24.007024,-2.3714 -24.234227,-2.50772 -0.454406,-0.54528 0.954254,-1.99938 0.954254,-1.99938 z"
         id="path2"
         sodipodi:nodetypes="ccccccc" /><path
         style="fill:#ffffff;stroke:none;stroke-width:0.0859618;stroke-linecap:round;stroke-linejoin:round;stroke-miterlimit:0;paint-order:stroke fill markers"
         d="m 106.26293,133.27738 c 0,0 0.0908,21.87967 0.11364,21.87967 0.61345,-0.52257 4.95303,-5.15751 9.40621,-7.88395 6.90698,-4.22598 24.69567,-12.01605 43.71745,-10.47374 -0.64263,-1.0282 -14.27192,-20.8803 -14.27192,-20.8803 -2.72647,0.13633 -27.99147,-2.13571 -38.96538,17.35832 z"
         id="path3"
         sodipodi:nodetypes="cccccc" /><path
         style="fill:#ff9959;fill-opacity:1;stroke:none;stroke-width:0.0859618;stroke-linecap:round;stroke-linejoin:round;stroke-miterlimit:0;paint-order:stroke fill markers"
         d="m 90.449841,102.49911 c -0.674759,5.17315 2.699035,14.68404 12.370579,11.985 2.2492,-2.21706 1.41378,-12.88468 -12.370579,-11.985 z"
         id="path6" /><path
         style="fill:#fe9757;fill-opacity:1;stroke:none;stroke-width:0.0859618;stroke-linecap:round;stroke-linejoin:round;stroke-miterlimit:0;paint-order:stroke fill markers"
         d="m 124.83042,96.362013 c -7.63987,0.241181 -15.18216,1.698879 -17.13611,9.741867 -1.39992,8.06087 5.95272,6.63434 10.67855,4.86215 8.04299,-4.95303 6.45756,-14.604017 6.45756,-14.604017 z"
         id="path7"
         sodipodi:nodetypes="cccc" /><path
         id="path5"
         style="fill:#153566;fill-opacity:1;stroke:none;stroke-width:0.0859618;stroke-linecap:round;stroke-linejoin:round;stroke-miterlimit:0;paint-order:stroke fill markers"
         d="m 116.39474,103.10291 c -0.41748,0.18176 -2.24193,1.31042 -4.42307,3.1394 -2.52195,2.31747 -4.56324,5.71686 -5.35845,7.14824 -0.79521,1.43138 -1.11334,3.63498 -1.4087,3.04425 -1.15873,-5.18023 -8.585556,-9.10008 -8.392767,-8.42532 5.269547,4.24134 7.004847,9.86426 7.326167,12.65969 0.12989,0.59752 -0.47556,5.12315 -0.7121,6.83421 0.32163,0.39927 0.63417,0.80949 0.93689,1.23093 0.23412,0.14003 0.81255,0.31345 1.09554,-0.12609 0.23446,-0.36416 0.47812,-0.72125 0.73122,-1.07177 0.17786,-2.14835 0.84269,-8.32081 2.07711,-12.1046 1.54231,-4.01642 6.09423,-10.22051 8.45714,-12.06085 0.13913,-0.16563 0.33561,-0.24445 0.36317,-0.31282 0.0669,-0.16609 -0.42251,-0.0458 -0.69215,0.0447 z"
         sodipodi:nodetypes="ccscccccscccscc" /></g><g
       id="g11"
       inkscape:label="TVD-Store"
       inkscape:export-filename="TVD-Store-Logo.svg"
       inkscape:export-xdpi="96"
       inkscape:export-ydpi="96"><text
         xml:space="preserve"
         style="font-weight:900;font-size:31.815px;line-height:1.2011px;font-family:'Be Vietnam Pro';-inkscape-font-specification:'Be Vietnam Pro, Heavy';writing-mode:lr-tb;direction:ltr;fill:#153566;fill-opacity:1;stroke:none;stroke-width:0.0859618;stroke-linecap:round;stroke-linejoin:round;stroke-miterlimit:0;paint-order:stroke fill markers"
         x="18.362822"
         y="200.18719"
         id="text7"><tspan
           sodipodi:role="line"
           id="tspan7"
           style="stroke-width:0.0859618"
           x="18.362822"
           y="200.18719">TVD</tspan></text><text
         xml:space="preserve"
         style="font-style:normal;font-variant:normal;font-weight:600;font-stretch:normal;font-size:32.2109px;line-height:1.21604px;font-family:'Be Vietnam Pro';-inkscape-font-specification:'Be Vietnam Pro, Semi-Bold';font-variant-ligatures:normal;font-variant-caps:normal;font-variant-numeric:normal;font-variant-east-asian:normal;writing-mode:lr-tb;direction:ltr;fill:#153566;fill-opacity:1;stroke:none;stroke-width:0.085962;stroke-linecap:round;stroke-linejoin:round;stroke-miterlimit:0;paint-order:stroke fill markers"
         x="102.73566"
         y="199.71214"
         id="text8"><tspan
           sodipodi:role="line"
           id="tspan8"
           style="font-style:normal;font-variant:normal;font-weight:600;font-stretch:normal;font-size:32.2109px;font-family:'Be Vietnam Pro';-inkscape-font-specification:'Be Vietnam Pro, Semi-Bold';font-variant-ligatures:normal;font-variant-caps:normal;font-variant-numeric:normal;font-variant-east-asian:normal;stroke-width:0.085962"
           x="102.73566"
           y="199.71214">Store</tspan></text><text
         xml:space="preserve"
         style="font-style:normal;font-variant:normal;font-weight:600;font-stretch:normal;font-size:23.5286px;line-height:0.388407px;font-family:'Be Vietnam Pro';-inkscape-font-specification:'Be Vietnam Pro, Semi-Bold';font-variant-ligatures:normal;font-variant-caps:normal;font-variant-numeric:normal;font-variant-east-asian:normal;writing-mode:lr-tb;direction:ltr;fill:#153566;fill-opacity:1;stroke:none;stroke-width:0.0859619;stroke-linecap:round;stroke-linejoin:round;stroke-miterlimit:0;paint-order:stroke fill markers"
         x="91.052765"
         y="197.827"
         id="text9"><tspan
           sodipodi:role="line"
           id="tspan9"
           style="stroke-width:0.0859619"
           x="91.052765"
           y="197.827">-</tspan></text></g></g></svg>
