<?xml version="1.0" encoding="utf-8"?>
<!-- Generator: Adobe Illustrator 24.0.0, SVG Export Plug-In . SVG Version: 6.00 Build 0)  -->
<svg version="1.1" id="Layer_1" xmlns="http://www.w3.org/2000/svg" xmlns:xlink="http://www.w3.org/1999/xlink" x="0px" y="0px"
	 viewBox="0 0 1080 1920" style="enable-background:new 0 0 1080 1920;" xml:space="preserve">
<style type="text/css">
	.st0{fill:#ED1C2B;}
	.st1{fill:#ED202A;}
	.st2{fill:#67BC45;}
	.st3{font-family:'LeelawadeeUI-Bold';}
	.st4{font-size:148.4368px;}
	.st5{fill:#F26728;}
</style>
<text transform="matrix(1 0 0 1 134.7697 393.6816)"><tspan x="0" y="0" class="st1 st3 st4">AUSTRALIA</tspan><tspan x="122.31" y="178.12" class="st1 st3 st4">-OCEAN</tspan></text>
<g>
	<path class="st1" d="M588.92,734.87c0.84,1.31,2.45,1.88,3.95,2.29c12.41,3.42,26.08,2.01,37.53-3.87
		c3.69-1.89,7.29-4.27,11.41-4.71c2.7-0.29,5.43,0.3,8.13,0.01c2.7-0.28,5.61-1.83,6.11-4.5c0.5-2.62-1.42-5.64,0.13-7.81
		c1.62-2.27,5.59-1.39,7.38-3.52c2-2.38-0.39-5.85-2.65-7.98c-9.19-8.67-18.11-18.04-27.94-25.91c-0.88,12.4,8.17,26.69-1.53,37.31
		C625.8,722.36,585.98,730.29,588.92,734.87z"/>
	<path class="st1" d="M710.9,773.56c4.52,1.49,9.29,2.17,13.71,3.94c4.42,1.77,8.63,4.97,9.95,9.54c-0.02-0.21-0.04-0.42-0.07-0.62
		c-1.56-12.19-13.95-19.8-24.94-25.55c-1.44-0.75-2.96-1.59-3.74-3.03C705.33,756.95,690.62,766.86,710.9,773.56z"/>
	<path class="st1" d="M840.12,1009.4c-1.11-5.06-2.88-10.11-6.23-14.05c-3.35-3.94-8.53-6.62-13.66-5.92
		c-4.4,9.66,3.24,20.68,12,26.67c6.17,4.22,13.17,6.91,20.12,9.3C843.59,1026.88,841.59,1016.09,840.12,1009.4z"/>
	<path class="st1" d="M868.97,921.26c4.07,9.89,7.01,20.25,8.73,30.8c4.9-2.79,6.27-10.26,2.69-14.61c3.5,3.12,3.55,8.43,4.35,13.06
		c2.1,12.11,11.71,22.58,23.6,25.71c1.83-3.56,0.32-8.02-2.24-11.1c-2.56-3.08-6.03-5.24-8.93-8c-5.46-5.19-8.8-12.56-9.09-20.1
		c-0.26-6.78,0.97-15.39-4.97-18.67c-1.03,2.94-2.06,5.87-3.09,8.81c-1.71-0.18-2.82-1.86-3.49-3.44
		c-4.12-9.84,0.04-23.94-9.25-31.08c-1.43,4.35-4.21,8.89-9.02,9.47C858.18,909.16,866.2,914.52,868.97,921.26z"/>
	<path class="st1" d="M749.81,776.7c6.81,2.9,15.55,1.81,20.7,7.13c5.08,5.23,3.99,14.11,8.3,19.99c2.03,2.77,5.09,4.62,7.3,7.25
		c2.21,2.63,3.4,6.77,1.18,9.39c-2.78,3.27-8.56,1.25-10.69-2.47c-2.13-3.72-1.94-8.27-2.47-12.53c-0.53-4.26-2.35-8.99-6.41-10.37
		c-3.91-1.32-9.1,0.74-11.83-2.35c-0.92-1.04-1.28-2.43-1.77-3.72c-3.95-10.48-17.35-15.65-19.68-26.27
		C739.76,766.85,743.01,773.81,749.81,776.7z"/>
	<path class="st1" d="M353.22,840.13c-3.54-7.42-13.98-10.51-20.98-6.2c6.11,5.1,6.69,15.51,1.19,21.27
		c-2.81,2.94-6.71,4.57-9.93,7.06c-10.64,8.21-11.1,26.47-0.89,35.21c-4.94,2.56-9.88,5.12-14.81,7.69
		c-3.47-12.99-13.39-24.08-25.92-28.96c-17.05,10.69-29.75,28.11-34.71,47.62c-1.98,0.34-3.96,0.69-5.94,1.03
		c-0.91,5.77-1.82,11.54-2.73,17.3c-4.39-5.86-6.16-13.6-4.76-20.78c-10.29,2.04-16.1,12.99-18.92,23.1
		c-2.83,10.11-4.52,21.29-11.96,28.69c-5.45,5.42-13.12,7.86-20.47,10.11c-11.28,3.46-22.56,6.92-33.84,10.38
		c-9.31,2.85-19.43,6.33-24.45,14.67c-4.07,6.76-6.68,17.56-14.51,16.61c-3.3-0.4-5.88-3.12-9.11-3.93
		c-6.65-1.68-12.6,5.65-12.88,12.51c-0.29,6.85,2.95,13.29,4.73,19.92c1.78,6.62,1.63,14.79-3.76,19.04
		c6.26,0.37,12.71,2.83,16.41,7.9c3.7,5.07,3.69,13-1.08,17.08c-4.76,4.08-13.8,1.75-14.88-4.43
		c13.73,37.4,23.43,76.28,28.87,115.75c2.23,16.13,3.53,33.51-4.29,47.79c13.59,10.24,33.43,11.31,48.05,2.6
		c8.19-4.88,14.67-12.42,23.24-16.61c14.94-7.3,33.05-3.07,48.96-7.88c14.57-4.41,26.43-16.15,41.43-18.79
		c11.31-1.99,23.91,1.29,33.82-4.53c4.68-2.75,8.11-7.22,12.62-10.24c5.04-3.38,11.18-4.75,17.24-5.1
		c24.06-1.37,48.7,15.19,54.12,38.66c1.36,5.87,1.6,12.04,3.91,17.61c2.31,5.56,7.56,10.59,13.56,10.04
		c1.51-18.39,18.98-33.99,37.42-33.42c0.88,5.92-3.36,11.35-7.87,15.29c-4.51,3.94-9.76,7.52-12.1,13.02
		c-2.34,5.51,0.28,13.59,6.25,14.02c3.02-5.72,7.2-10.82,12.2-14.93c9.38,8.35,4.96,26.76-7.19,29.93
		c11.66-3.45,28.18-4.61,32.09,6.91c1.1,3.26,0.75,6.81,1.08,10.23c1.71,17.79,20.33,28.2,36.63,35.54
		c3.31,1.49,6.86,3.01,10.44,2.41c6.17-1.03,9.46-7.56,13.04-12.68c3.59-5.12,10.93-9.59,15.64-5.47c4.07,3.57,2.38,10.6,5.61,14.94
		c4.36,5.88,14.1,2.73,18.88-2.82c4.78-5.55,7.61-12.99,13.8-16.9c11.52-7.27,32.43-1.59,35.84-14.79
		c1.85-7.18-4.19-13.78-6.15-20.93c-3.08-11.17,4.14-22.56,12.42-30.66c8.28-8.1,18.27-15.08,23.18-25.57
		c8.21-17.53-0.4-38.38,2.9-57.45c3.31-19.14,18.48-38.18,10.54-55.91c-3.12-6.96-9.45-12.19-12.06-19.35
		c-2.53-6.92-1.48-15.3-6.18-20.96c-2.98-3.59-7.65-5.23-11.43-7.96c-12.56-9.06-12.9-27.14-17.7-41.87
		c-8.74-26.82-33.9-44.25-51.3-66.46c-3.21-4.1-6.23-8.51-7.62-13.53c-1.6-5.84-0.88-12.03-1.35-18.07
		c-1.16-14.7-10.01-28.58-22.85-35.82c-2.8-1.58-5.88-2.95-7.85-5.5c-2.79-3.62-2.64-8.61-2.79-13.17
		c-0.55-17.21-7.37-34.14-18.91-46.92c-7.63,37.76-15.26,75.52-22.89,113.28c-4.42,3.37-9.82,5.46-15.36,5.96
		c-2.2-9.65-4.41-19.29-6.61-28.94c-10.88,0.56-22.32,1.01-32.09-3.8c-9.78-4.81-16.93-16.81-12.56-26.79
		c2.39-5.45,7.79-11.51,4.24-16.29c9.75,3.66,18.25-12.16,11.11-19.74c-11.23-11.93-23.52,5.36-35.1,4.74
		C381.54,851.16,368.67,831.04,353.22,840.13z"/>
	<line class="st1" x1="534.1" y1="974.33" x2="537.82" y2="971.85"/>
	<path class="st1" d="M560.12,1428.95c-0.08,2.79-0.16,6.2,2.23,7.64c0.96,0.58,2.13,0.67,3.25,0.75
		c8.21,0.55,18.56-0.53,21.36-8.26c2.25-6.21-2.02-13.4,0.28-19.59c0.76-2.04,2.17-3.76,3.36-5.58c2.99-4.54,4.74-10.23,3.29-15.47
		c-1.46-5.24-6.83-9.53-12.16-8.5c-2.92,0.56-5.4,2.53-8.28,3.28c-9.24,2.43-35.75-17.35-33.46,4.82
		c0.72,6.95,10.31,12.41,13.85,18.07C558.08,1412.91,560.36,1420.94,560.12,1428.95z"/>
	<path class="st1" d="M865.96,1467.78c-6.15,2.03-12.91,2.92-18.05,6.86c-5.15,3.93-7.46,12.61-2.43,16.69
		c3.87,3.14,9.62,1.86,14.36,3.38c10.62,3.4,11.58,17.85,10.5,28.95c7.44,3.18,15.53-3.33,19.65-10.3
		c4.12-6.97,6.94-15.35,13.82-19.61c4.48-2.78,10.37-3.54,13.69-7.64c4.68-5.77,1.59-14.42,3.32-21.64
		c4.35-18.12,30.44-19.69,37.41-37.37c4.84-12.28,13.7-36.33-0.83-38.87C921.12,1381.88,897.39,1457.38,865.96,1467.78z"/>
	<path class="st1" d="M980.13,1400.87c-0.01,0.96,0,1.98,0.51,2.79c1.28,2.02,4.47,1.21,6.32-0.31c10.64-8.72,4.2-27.34,12.37-38.41
		c2.7-3.66,6.72-6.06,10.28-8.89c11.43-9.08,18.46-23.45,18.62-38.05c-5.26,2.86-10.67,5.77-16.61,6.6
		c-5.93,0.83-12.6-0.85-16.15-5.67c-4.36-5.94-2.9-14.66-7.03-20.76c-4.76-7.03-15.05-8.03-20.76-14.3
		c-5.24-5.75-5.37-14.31-6.56-22.01c-1.19-7.69-5.16-16.46-12.87-17.52c-15.26,17.5,14.71,39.43,18.6,54.38
		c3.73,14.32-3.65,18.33-9.39,30.36c-5.97,12.51-9.95,22.38,1.91,32.1c7.63,6.25,13.93-3.28,20.58,8.29
		C983.79,1376.13,980.21,1393.46,980.13,1400.87z"/>
</g>
</svg>
